<svg xmlns="http://www.w3.org/2000/svg" xmlns:xlink="http://www.w3.org/1999/xlink" width="1024" zoomAndPan="magnify" viewBox="0 0 768 767.999994" height="1024" preserveAspectRatio="xMidYMid meet" version="1.0"><defs><clipPath id="acfa41ecce"><path d="M 89.230469 101 L 431 101 L 431 678.730469 L 89.230469 678.730469 Z M 89.230469 101 " clip-rule="nonzero"/></clipPath><clipPath id="2f7dfe586d"><path d="M 341 89.230469 L 678.730469 89.230469 L 678.730469 660 L 341 660 Z M 341 89.230469 " clip-rule="nonzero"/></clipPath></defs><path fill="#004aad" d="M 238.972656 202.8125 L 238.972656 524.308594 C 243.296875 528.628906 247.617188 532.953125 252.335938 537.277344 C 263.734375 547.101562 276.308594 555.75 290.066406 562.824219 L 290.066406 326.222656 L 529.023438 565.179688 L 529.023438 243.6875 C 524.699219 239.363281 520.375 235.042969 515.660156 230.71875 C 504.261719 220.894531 491.6875 212.246094 477.929688 205.171875 L 477.929688 441.378906 L 260.589844 224.429688 L 238.972656 202.8125 " fill-opacity="1" fill-rule="nonzero"/><g clip-path="url(#acfa41ecce)"><path fill="#004aad" d="M 140.324219 383.996094 C 140.324219 284.5625 200.0625 198.882812 285.742188 161.152344 L 426.445312 301.855469 L 426.445312 229.539062 L 405.222656 208.316406 L 341.15625 144.253906 L 298.710938 101.808594 C 177.660156 138.359375 89.230469 251.15625 89.230469 383.996094 C 89.230469 546.710938 221.285156 678.765625 383.996094 678.765625 C 399.71875 678.765625 415.441406 677.585938 430.375 675.226562 L 382.820312 627.671875 C 249.191406 626.886719 140.324219 518.019531 140.324219 383.996094 " fill-opacity="1" fill-rule="nonzero"/></g><g clip-path="url(#2f7dfe586d)"><path fill="#004aad" d="M 383.996094 89.230469 C 375.746094 89.230469 367.882812 89.625 359.628906 90.410156 L 411.507812 141.894531 C 532.953125 155.652344 627.671875 259.015625 627.671875 383.996094 C 627.671875 476.75 575.398438 557.714844 499.152344 598.589844 L 341.550781 440.984375 L 341.550781 513.695312 L 487.753906 659.898438 C 599.375 617.847656 678.765625 510.15625 678.765625 383.996094 C 678.765625 221.285156 546.710938 89.230469 383.996094 89.230469 " fill-opacity="1" fill-rule="nonzero"/></g></svg>